<?xml version="1.0" encoding="UTF-8" standalone="no"?>
<!-- Created with Inkscape (http://www.inkscape.org/) -->

<svg
   version="1.1"
   id="svg1"
   width="566.93335"
   height="566.93335"
   viewBox="0 0 566.93335 566.93335"
   sodipodi:docname="533_REpWIExBVSAzMTctODQ.eps"
   xmlns:inkscape="http://www.inkscape.org/namespaces/inkscape"
   xmlns:sodipodi="http://sodipodi.sourceforge.net/DTD/sodipodi-0.dtd"
   xmlns="http://www.w3.org/2000/svg"
   xmlns:svg="http://www.w3.org/2000/svg">
  <defs
     id="defs1" />
  <sodipodi:namedview
     id="namedview1"
     pagecolor="#ffffff"
     bordercolor="#000000"
     borderopacity="0.25"
     inkscape:showpageshadow="2"
     inkscape:pageopacity="0.0"
     inkscape:pagecheckerboard="0"
     inkscape:deskcolor="#d1d1d1">
    <inkscape:page
       x="0"
       y="0"
       inkscape:label="1"
       id="page1"
       width="566.93335"
       height="566.93335"
       margin="0"
       bleed="0" />
  </sodipodi:namedview>
  <g
     id="g1"
     inkscape:groupmode="layer"
     inkscape:label="1">
    <g
       id="group-R5">
      <path
         id="path2"
         d="m 2144.07,707.77 1627.56,2147.28 -866.82,713 H 1347.19 l -866.815,-713 1627.495,-2147.28 18.13,-23.821 18.07,23.821"
         style="fill:#ffffff;fill-opacity:1;fill-rule:nonzero;stroke:none"
         transform="matrix(0.13333333,0,0,-0.13333333,0,566.93333)" />
      <path
         id="path3"
         d="m 2144.07,707.77 19.92,-15.098 1627.56,2147.278 c 8.11,10.7 6.33,25.88 -4.04,34.41 l -866.82,713 c -4.46,3.67 -10.1,5.69 -15.88,5.69 h -760.74 -36.2 -760.68 c -5.78,0 -11.42,-2.02 -15.88,-5.69 l -866.818,-713 c -10.375,-8.53 -12.152,-23.71 -4.039,-34.41 L 2087.95,692.672 l 0.03,-0.043 18.13,-23.82 c 4.75,-6.239 12.06,-9.86 19.91,-9.848 7.85,0 15.15,3.641 19.9,9.891 l 18.07,23.808 -19.92,15.11 -19.91,15.109 -18.08,-23.809 19.92,-15.121 19.89,15.153 -18.13,23.82 0.03,-0.051 L 514.813,2851 1356.15,3543.05 h 751.72 36.2 751.77 L 3737.19,2851 2124.15,722.871 2144.07,707.77"
         style="fill:#231f20;fill-opacity:1;fill-rule:nonzero;stroke:none"
         transform="matrix(0.13333333,0,0,-0.13333333,0,566.93333)" />
      <path
         id="path4"
         d="M 480.375,2855.05 H 3771.63"
         style="fill:#ffffff;fill-opacity:1;fill-rule:nonzero;stroke:none"
         transform="matrix(0.13333333,0,0,-0.13333333,0,566.93333)" />
      <path
         id="path5"
         d="M 480.375,2830.05 H 3771.63 c 13.8,0 25,11.19 25,25 0,13.81 -11.2,25 -25,25 H 480.375 c -13.809,0 -25,-11.19 -25,-25 0,-13.81 11.191,-25 25,-25"
         style="fill:#231f20;fill-opacity:1;fill-rule:nonzero;stroke:none"
         transform="matrix(0.13333333,0,0,-0.13333333,0,566.93333)" />
      <path
         id="path6"
         d="m 1342.48,3568.05 778.83,-715.39"
         style="fill:#ffffff;fill-opacity:1;fill-rule:nonzero;stroke:none"
         transform="matrix(0.13333333,0,0,-0.13333333,0,566.93333)" />
      <path
         id="path7"
         d="m 1325.56,3549.64 778.83,-715.38 c 10.17,-9.34 25.99,-8.68 35.33,1.49 9.34,10.17 8.67,25.99 -1.5,35.33 l -778.83,715.38 c -10.17,9.34 -25.99,8.67 -35.33,-1.5 -9.34,-10.17 -8.67,-25.98 1.5,-35.32"
         style="fill:#231f20;fill-opacity:1;fill-rule:nonzero;stroke:none"
         transform="matrix(0.13333333,0,0,-0.13333333,0,566.93333)" />
      <path
         id="path8"
         d="M 2909.53,3568.05 2121.31,2852.66"
         style="fill:#ffffff;fill-opacity:1;fill-rule:nonzero;stroke:none"
         transform="matrix(0.13333333,0,0,-0.13333333,0,566.93333)" />
      <path
         id="path9"
         d="m 2892.72,3586.56 -788.21,-715.38 c -10.23,-9.28 -10.99,-25.09 -1.71,-35.31 9.28,-10.23 25.09,-10.99 35.31,-1.72 l 788.22,715.39 c 10.22,9.28 10.99,25.09 1.71,35.31 -9.28,10.22 -25.09,10.99 -35.32,1.71"
         style="fill:#231f20;fill-opacity:1;fill-rule:nonzero;stroke:none"
         transform="matrix(0.13333333,0,0,-0.13333333,0,566.93333)" />
      <path
         id="path10"
         d="M 2126,2852.66 V 683.949"
         style="fill:#ffffff;fill-opacity:1;fill-rule:nonzero;stroke:none"
         transform="matrix(0.13333333,0,0,-0.13333333,0,566.93333)" />
      <path
         id="path11"
         d="M 2101,2852.66 V 683.949 c 0,-13.801 11.19,-25 25,-25 13.81,0 25,11.199 25,25 V 2852.66 c 0,13.81 -11.19,25 -25,25 -13.81,0 -25,-11.19 -25,-25"
         style="fill:#231f20;fill-opacity:1;fill-rule:nonzero;stroke:none"
         transform="matrix(0.13333333,0,0,-0.13333333,0,566.93333)" />
      <path
         id="path12"
         d="M 1347.19,3568.05 1173.73,2852.66"
         style="fill:#ffffff;fill-opacity:1;fill-rule:nonzero;stroke:none"
         transform="matrix(0.13333333,0,0,-0.13333333,0,566.93333)" />
      <path
         id="path13"
         d="m 1322.9,3573.94 -173.47,-715.38 c -3.25,-13.42 4.99,-26.94 18.41,-30.19 13.42,-3.25 26.93,4.99 30.18,18.41 l 173.47,715.38 c 3.25,13.41 -4.99,26.93 -18.41,30.18 -13.42,3.26 -26.93,-4.98 -30.18,-18.4"
         style="fill:#231f20;fill-opacity:1;fill-rule:nonzero;stroke:none"
         transform="matrix(0.13333333,0,0,-0.13333333,0,566.93333)" />
      <path
         id="path14"
         d="m 2909.53,3568.05 173.46,-715.39"
         style="fill:#ffffff;fill-opacity:1;fill-rule:nonzero;stroke:none"
         transform="matrix(0.13333333,0,0,-0.13333333,0,566.93333)" />
      <path
         id="path15"
         d="m 2885.23,3562.16 173.46,-715.38 c 3.26,-13.42 16.77,-21.66 30.19,-18.41 13.42,3.25 21.66,16.77 18.4,30.19 l -173.46,715.38 c -3.25,13.42 -16.77,21.66 -30.19,18.4 -13.42,-3.25 -21.65,-16.77 -18.4,-30.18"
         style="fill:#231f20;fill-opacity:1;fill-rule:nonzero;stroke:none"
         transform="matrix(0.13333333,0,0,-0.13333333,0,566.93333)" />
      <path
         id="path16"
         d="M 1173.73,2852.66 2126,683.949"
         style="fill:#ffffff;fill-opacity:1;fill-rule:nonzero;stroke:none"
         transform="matrix(0.13333333,0,0,-0.13333333,0,566.93333)" />
      <path
         id="path17"
         d="M 1150.84,2842.62 2103.11,673.898 c 5.55,-12.636 20.3,-18.378 32.94,-12.828 12.64,5.539 18.39,20.301 12.84,32.942 L 1196.62,2862.72 c -5.55,12.64 -20.3,18.39 -32.94,12.83 -12.64,-5.54 -18.39,-20.29 -12.84,-32.93"
         style="fill:#231f20;fill-opacity:1;fill-rule:nonzero;stroke:none"
         transform="matrix(0.13333333,0,0,-0.13333333,0,566.93333)" />
      <path
         id="path18"
         d="M 3082.99,2852.66 2130.66,683.949"
         style="fill:#ffffff;fill-opacity:1;fill-rule:nonzero;stroke:none"
         transform="matrix(0.13333333,0,0,-0.13333333,0,566.93333)" />
      <path
         id="path19"
         d="M 3060.1,2862.72 2107.77,694.012 c -5.55,-12.641 0.19,-27.403 12.84,-32.942 12.64,-5.55 27.39,0.192 32.94,12.828 l 952.33,2168.722 c 5.55,12.64 -0.2,27.39 -12.84,32.93 -12.64,5.56 -27.39,-0.19 -32.94,-12.83"
         style="fill:#231f20;fill-opacity:1;fill-rule:nonzero;stroke:none"
         transform="matrix(0.13333333,0,0,-0.13333333,0,566.93333)" />
    </g>
  </g>
</svg>
